<svg width="33" height="29" viewBox="0 0 33 29" fill="none" xmlns="http://www.w3.org/2000/svg">
<path fill-rule="evenodd" clip-rule="evenodd" d="M1.5312 13.0858L31.0864 13.0858C31.7653 13.0858 32.3185 13.6016 32.3185 14.2378C32.3185 14.874 31.7653 15.3884 31.0864 15.3884L1.5312 15.3884C0.852322 15.3884 0.299103 14.874 0.299103 14.2378C0.299103 13.6016 0.852322 13.0858 1.5312 13.0858Z" fill="black"/>
<path fill-rule="evenodd" clip-rule="evenodd" d="M17.4456 0.331963C17.7613 0.331963 18.0754 0.445159 18.316 0.668685L32.8285 14.2378L18.316 27.8056C17.8348 28.2555 17.0563 28.2555 16.5751 27.8056C16.0939 27.3556 16.0939 26.6278 16.5751 26.1778L29.3452 14.2378L16.5751 2.29784C16.0939 1.84793 16.0939 1.1186 16.5751 0.668684C16.8157 0.445159 17.1299 0.331963 17.4456 0.331963Z" fill="black"/>
</svg>
