<svg width="101" height="52" viewBox="0 0 101 52" fill="none" xmlns="http://www.w3.org/2000/svg">
<path d="M24.9242 15.5555C26.6835 15.5555 28.7361 16.1481 30.2023 17.037C28.7361 16.1481 26.9768 15.5555 24.9242 15.5555Z" fill="white"/>
<path d="M17.5935 18.5185C19.6461 16.7407 22.2851 15.5555 24.9242 15.5555C21.9919 15.5555 19.6461 16.4444 17.5935 18.5185Z" fill="white"/>
<path d="M68.0284 18.5185C70.081 16.4444 72.4268 15.5556 75.359 15.5556C77.9981 15.5556 80.6371 16.7407 82.6897 18.5185C84.7423 20.5926 85.6219 22.963 85.6219 25.9259C85.6219 28.5926 84.449 31.2593 82.6897 33.3333C80.6371 35.4074 78.2913 36.2963 75.359 36.2963C72.72 36.2963 70.081 35.1111 68.0284 33.3333L64.5097 29.4815L60.991 33.037L64.8029 36.8889C67.7352 39.8519 71.5471 41.3333 75.6523 41.3333C79.7574 41.3333 83.5694 39.8519 86.5016 36.8889C89.4339 33.9259 90.9 30.0741 90.9 25.9259C90.9 21.7778 89.4339 17.9259 86.5016 14.963C83.5694 12 79.7574 10.5185 75.6523 10.5185C71.5471 10.5185 67.7352 12 64.8029 14.963L63.0435 16.7407L53.9535 25.9259L43.1042 36.5926L41.9313 37.7778L39.5855 40.1482L39.2923 40.4444C31.3752 48.4444 18.4732 48.4444 10.5561 40.4444C6.74419 36.5926 4.69161 31.2593 4.69161 25.9259C4.69161 20.2963 6.74419 15.2593 10.5561 11.4074C14.3681 7.55556 19.6461 5.48148 24.9242 5.48148C30.2023 5.48148 35.4803 7.55556 39.2923 11.4074L46.6229 18.8148L32.8413 32.7407L32.2548 33.3333C30.2023 35.4074 27.8564 36.2963 24.9242 36.2963C23.1648 36.2963 21.4055 35.7037 19.9394 35.1111L34.8939 20L37.8261 17.037L35.7735 14.963C35.1871 14.3704 34.6006 13.7778 34.0142 13.4815C31.3752 11.7037 28.4429 10.5185 24.9242 10.5185C20.819 10.5185 17.0071 12 14.0748 14.963C11.1426 17.9259 9.67645 21.7778 9.67645 25.9259C9.67645 30.0741 11.1426 33.9259 14.0748 36.8889C17.0071 39.8519 20.819 41.3333 24.9242 41.3333C29.0294 41.3333 32.8413 39.8519 35.7735 36.8889L42.811 29.7778L46.9161 25.6296L50.4348 22.0741L53.6603 18.8148L53.9535 18.5185L43.1042 7.55556C33.1345 -2.51852 17.0071 -2.51852 7.33064 7.55556C2.63903 12.2963 0 18.8148 0 25.6296C0 32.4444 2.63903 38.963 7.33064 43.7037C12.0223 49.037 18.4732 51.4074 24.9242 51.4074C31.3752 51.4074 37.8261 49.037 42.811 44L46.6229 40.1482L57.179 29.4815L68.0284 18.5185ZM14.6613 25.9259C14.6613 22.963 15.541 20.5926 17.5935 18.5185C19.6461 16.4444 21.9919 15.5556 24.9242 15.5556C26.9768 15.5556 28.7361 16.1481 30.2023 17.037L16.1274 31.2593C15.2477 29.7778 14.6613 28 14.6613 25.9259Z" fill="white"/>
<path d="M14.6613 25.926C14.6613 23.2593 15.8342 20.5926 17.5935 18.5186C15.5409 20.5926 14.6613 22.963 14.6613 25.926Z" fill="white"/>
<path d="M16.1274 31.2592C15.2477 29.7778 14.6613 27.7037 14.6613 25.9259C14.6613 28 15.2477 29.7778 16.1274 31.2592Z" fill="white"/>
<path d="M93.2458 7.85182C83.2761 -2.22225 67.1487 -2.22225 57.4722 7.85182L53.6603 11.7037L57.179 15.2592L60.9909 11.4074C68.908 3.40738 81.81 3.40738 89.7271 11.4074C93.539 15.2592 95.5916 20.5926 95.5916 25.9259C95.5916 31.5555 93.539 36.5926 89.7271 40.4444C85.9151 44.2963 80.6371 46.3703 75.359 46.3703C69.7877 46.3703 64.8029 44.2963 60.9909 40.4444L57.179 36.5926L53.6603 40.1481L57.4722 44C62.4571 49.037 68.908 51.4074 75.359 51.4074C81.81 51.4074 88.2609 49.037 93.2458 44C97.9374 39.2592 100.576 32.7407 100.576 25.9259C100.576 19.1111 97.9374 12.5926 93.2458 7.85182Z" fill="white"/>
</svg>
